<svg width="115" height="105" viewBox="0 0 115 105" fill="none" xmlns="http://www.w3.org/2000/svg">
<rect width="85" height="85" rx="42.5" fill="url(#paint0_linear)"/>
<path d="M39.3293 84.7865C40.1586 84.7865 40.8842 84.0609 40.8842 83.2316V83.128C40.8842 82.2987 40.1586 81.6768 39.3293 81.6768C38.5 81.6768 37.7744 82.4024 37.7744 83.2316C37.7744 84.0609 38.5 84.7865 39.3293 84.7865Z" fill="#5C5C5C"/>
<path d="M39.3293 79.7074C40.1586 79.7074 40.8842 78.9818 40.8842 78.1525V78.0489C40.8842 77.2196 40.1586 76.5977 39.3293 76.5977C38.5 76.5977 37.7744 77.3233 37.7744 78.2562C37.7744 78.9818 38.5 79.7074 39.3293 79.7074Z" fill="#5C5C5C"/>
<path d="M44.9268 79.7074C45.7561 79.7074 46.3781 78.9818 46.3781 78.1525V78.0489C46.3781 77.2196 45.7561 76.5977 44.9268 76.5977H44.8232C43.9939 76.5977 43.2683 77.3233 43.2683 78.1525C43.2683 78.9818 43.9939 79.7074 44.9268 79.7074Z" fill="#5C5C5C"/>
<path d="M50.4207 76.4939H50.3171C49.4878 76.4939 48.7622 77.2195 48.7622 78.0488C48.7622 78.878 49.4878 79.6037 50.3171 79.6037H50.4207C51.25 79.6037 51.872 78.878 51.872 78.0488V77.9451C51.9756 77.2195 51.25 76.4939 50.4207 76.4939Z" fill="#5C5C5C"/>
<path d="M56.0184 76.4939H55.9147C55.0855 76.4939 54.3599 77.2195 54.3599 78.0488C54.3599 78.878 55.0855 79.6037 55.9147 79.6037H56.0184C56.8477 79.6037 57.5733 78.878 57.5733 78.0488V77.9451C57.4696 77.1158 56.744 76.4939 56.0184 76.4939Z" fill="#5C5C5C"/>
<path d="M61.5123 76.4939H61.4086C60.5794 76.4939 59.8538 77.2195 59.8538 78.0488C59.8538 78.878 60.5794 79.6037 61.4086 79.6037H61.5123C62.3416 79.6037 63.0672 78.878 63.0672 78.0488V77.9451C62.9635 77.1158 62.3416 76.4939 61.5123 76.4939Z" fill="#5C5C5C"/>
<path d="M67.0062 79.6037C67.8355 79.6037 68.5611 78.878 68.5611 78.0488C68.5611 77.2195 67.8355 76.4939 67.0062 76.4939H66.9025C66.0733 76.4939 65.3477 77.2195 65.3477 78.0488C65.3477 78.878 66.0733 79.6037 67.0062 79.6037Z" fill="#5C5C5C"/>
<path d="M105.671 84.7864C106.5 84.7864 107.226 84.0608 107.226 83.2315C107.226 82.4023 106.5 81.573 105.671 81.573C104.842 81.573 104.116 82.195 104.116 83.0242V83.2315C104.116 84.1645 104.842 84.7864 105.671 84.7864Z" fill="#5C5C5C"/>
<path d="M105.671 79.7073C106.5 79.7073 107.226 78.9817 107.226 78.1524C107.226 77.3232 106.5 76.4939 105.671 76.4939C104.842 76.4939 104.116 77.1158 104.116 77.9451V78.0488C104.116 78.9817 104.842 79.7073 105.671 79.7073Z" fill="#5C5C5C"/>
<path d="M100.177 76.4939H100.073C99.244 76.4939 98.6221 77.1158 98.6221 77.9451V78.0488C98.6221 78.878 99.244 79.6037 100.073 79.6037H100.177C101.006 79.6037 101.732 78.878 101.732 78.0488C101.732 77.2195 101.006 76.4939 100.177 76.4939Z" fill="#5C5C5C"/>
<path d="M94.6828 76.4939H94.5791C93.7499 76.4939 93.1279 77.1158 93.1279 77.9451V78.0488C93.1279 78.878 93.7499 79.6037 94.5791 79.6037H94.6828C95.5121 79.6037 96.2377 78.878 96.2377 78.0488C96.2377 77.2195 95.5121 76.4939 94.6828 76.4939Z" fill="#5C5C5C"/>
<path d="M89.0853 76.4939H88.9816C88.1524 76.4939 87.5304 77.1158 87.4268 77.9451V78.0488C87.4268 78.878 88.1524 79.6037 88.9816 79.6037H89.0853C89.9146 79.6037 90.6402 78.878 90.6402 78.0488C90.6402 77.2195 90.0182 76.4939 89.0853 76.4939Z" fill="#5C5C5C"/>
<path d="M83.5914 76.4939H83.4877C82.6585 76.4939 82.0365 77.1158 81.9329 77.9451V78.0488C81.9329 78.878 82.6585 79.6037 83.4877 79.6037H83.5914C84.4207 79.6037 85.1463 78.878 85.1463 78.0488C85.1463 77.2195 84.5243 76.4939 83.5914 76.4939Z" fill="#5C5C5C"/>
<path d="M78.0975 79.6037C78.9268 79.6037 79.6524 78.878 79.6524 78.0488C79.6524 77.2195 78.9268 76.4939 78.0975 76.4939H77.9938C77.1646 76.4939 76.439 77.2195 76.439 78.0488C76.439 78.878 77.1646 79.6037 78.0975 79.6037Z" fill="#5C5C5C"/>
<path d="M70.9451 83.2315C70.9451 84.0608 71.6707 84.7864 72.4999 84.7864C73.3292 84.7864 74.0548 84.0608 74.0548 83.2315V83.1279C74.0548 82.2986 73.3292 81.573 72.4999 81.573C71.6707 81.573 70.9451 82.2986 70.9451 83.2315Z" fill="#5C5C5C"/>
<path d="M70.9451 78.0488C70.9451 78.878 71.6707 79.6037 72.4999 79.6037C73.3292 79.6037 74.0548 78.878 74.0548 78.0488C74.0548 77.2195 73.3292 76.4939 72.4999 76.4939C71.6707 76.4939 70.9451 77.1158 70.9451 78.0488Z" fill="#5C5C5C"/>
<path d="M72.4999 74.5244C73.3292 74.5244 74.0548 73.7988 74.0548 72.9696V72.8659C74.0548 72.0366 73.3292 71.311 72.4999 71.311C71.6707 71.311 70.9451 72.0366 70.9451 72.8659V72.9696C70.9451 73.7988 71.6707 74.5244 72.4999 74.5244Z" fill="#5C5C5C"/>
<path d="M39.3293 86.3413C34.1463 86.3413 30 90.4876 30 95.6706C30 100.854 34.1463 105 39.3293 105C44.5122 105 48.6585 100.854 48.6585 95.6706C48.6585 90.4876 44.5122 86.3413 39.3293 86.3413Z" fill="#5C5C5C"/>
<path d="M72.4999 86.3413C67.317 86.3413 63.1707 90.4876 63.1707 95.6706C63.1707 100.854 67.317 105 72.4999 105C77.6828 105 81.8292 100.854 81.8292 95.6706C81.8292 90.4876 77.6828 86.3413 72.4999 86.3413Z" fill="#5C5C5C"/>
<path d="M105.671 86.3413C100.488 86.3413 96.3416 90.4876 96.3416 95.6706C96.3416 100.854 100.488 105 105.671 105C110.854 105 115 100.854 115 95.6706C115 90.4876 110.854 86.3413 105.671 86.3413Z" fill="#5C5C5C"/>
<path d="M72.5 11.7073C56.4329 11.7073 43.4756 24.6646 43.4756 40.7317C43.4756 56.7987 56.4329 69.7561 72.5 69.7561C88.5671 69.7561 101.524 56.7987 101.524 40.7317C101.524 24.6646 88.5671 11.7073 72.5 11.7073ZM72.5 66.6463C58.1951 66.6463 46.5853 55.0365 46.5853 40.7317C46.5853 26.4268 58.1951 14.817 72.5 14.817C86.8049 14.817 98.4146 26.4268 98.4146 40.7317C98.4146 55.0365 86.8049 66.6463 72.5 66.6463Z" fill="#5C5C5C"/>
<path d="M91.7804 28.9146C91.5731 28.6036 91.1584 28.2926 90.8475 28.2926L84.1097 26.6341C83.2804 26.4268 82.4511 26.9451 82.2438 27.7743C82.0365 28.6036 82.5548 29.4329 83.3841 29.6402L86.3901 30.3658L84.317 31.6097L78.4084 35.1341C76.8536 33.3719 74.6767 32.439 72.4999 32.439C71.1523 32.439 69.7011 32.8536 68.3536 33.5792C67.628 33.9939 67.1097 34.5121 66.5914 35.0304L58.6097 30.3658L61.6158 29.6402C62.445 29.4329 62.9633 28.6036 62.756 27.7743C62.5487 26.9451 61.7194 26.4268 60.8901 26.6341L54.1523 28.2926C53.7377 28.3963 53.4267 28.6036 53.2194 29.0182C53.0121 29.3292 52.9084 29.8475 53.0121 30.1585L54.6706 36.8963C54.878 37.7256 55.7072 38.2438 56.5365 38.0365C57.3658 37.8292 57.8841 36.9999 57.6767 36.1707L56.8475 33.0609L64.8292 37.8292C63.9999 40.006 64.2072 42.4938 65.4511 44.6707C66.7987 46.9512 69.0792 48.2987 71.567 48.506V57.628L69.3901 55.2438C68.7682 54.6219 67.8353 54.6219 67.2133 55.2438C66.5914 55.8658 66.5914 56.7987 67.2133 57.4207L72.0853 62.2926C72.3962 62.6036 72.8109 62.7073 73.2255 62.7073C73.6402 62.7073 74.0548 62.4999 74.3658 62.2926L79.2377 57.4207C79.8597 56.7987 79.8597 55.8658 79.2377 55.2438C78.6158 54.6219 77.6828 54.6219 77.0609 55.2438L74.8841 57.4207V55.0365V47.9878C75.506 47.7804 76.128 47.5731 76.6462 47.1585C79.9633 45.189 81.3109 41.1463 80.067 37.6219L88.0487 32.8536L87.2194 35.9634C87.0121 36.7926 87.5304 37.6219 88.3597 37.8292C89.1889 38.0365 90.0182 37.5182 90.2255 36.689L91.8841 29.9512C91.9877 29.7439 91.9877 29.3292 91.7804 28.9146ZM77.1645 41.6646C76.8536 42.9085 76.0243 43.9451 74.8841 44.6707C74.1584 45.0853 73.2255 45.3963 72.3962 45.3963C70.6341 45.3963 69.0792 44.4634 68.1462 43.0121C66.7987 40.7317 67.5243 37.7256 69.8048 36.2743C70.5304 35.8597 71.4633 35.5487 72.2926 35.5487C74.0548 35.5487 75.6097 36.4817 76.5426 37.9329C77.3719 39.0731 77.4755 40.4207 77.1645 41.6646Z" fill="#5C5C5C"/>
<defs>
<linearGradient id="paint0_linear" x1="83.895" y1="2.05562" x2="-11.5335" y2="30.1824" gradientUnits="userSpaceOnUse">
<stop stop-color="#FFC000"/>
<stop offset="1" stop-color="#FF8A00"/>
</linearGradient>
</defs>
</svg>
