<svg width="108" height="99" viewBox="0 0 108 99" fill="none" xmlns="http://www.w3.org/2000/svg">
<rect width="85" height="85" rx="42.5" fill="url(#paint0_linear)"/>
<path d="M52.3364 37.0698V33.6852V14.3775C52.3364 12.1785 54.1177 10.3901 56.3222 10.3901H101.785C103.987 10.3901 105.771 12.1781 105.771 14.3774V14.3775V55.5933C105.771 57.7937 103.987 59.5791 101.785 59.5791H88.7514L95.917 92.1142L52.3364 37.0698ZM52.3364 37.0698L54.5364 34.4977L56.5144 32.185L56.5149 32.1844C57.2614 31.3106 58.2498 30.7642 59.3212 30.5336L60.3082 30.3212V29.3116V18.3638M52.3364 37.0698L60.3082 18.3638M60.3082 18.3638H97.7986V51.6068H60.3084V46.8735V43.4885L58.1084 46.0611L56.8772 47.5008L60.3082 18.3638ZM69.5319 59.5791L62.3652 92.1161L62.3652 92.1164C61.8807 94.318 63.2724 96.4948 65.4744 96.9803L65.4753 96.9804C67.6582 97.46 69.8529 96.0786 70.335 93.8723C70.3351 93.8719 70.3352 93.8715 70.3353 93.8711L77.8878 59.5793H80.3949L87.9479 93.8735L87.9479 93.8738C88.3679 95.7786 90.0562 97.0765 91.9303 97.0749L69.5319 59.5791ZM69.5319 59.5791H56.3222C54.1187 59.5791 52.3364 57.7932 52.3364 55.5933V50.5037V49.3651L53.4701 49.2592C54.7932 49.1355 56.0129 48.5088 56.8764 47.5018L69.5319 59.5791ZM92.8114 96.9803L92.8109 96.9804C92.513 97.0459 92.2169 97.0748 91.9318 97.0749L92.8114 96.9803ZM92.8114 96.9803C95.0126 96.495 96.4052 94.3189 95.9174 92.1162L92.8114 96.9803Z" stroke="#5C5C5C" stroke-width="2.5"/>
<path d="M80.0535 27.6226C79.8379 27.0791 79.2266 26.8122 78.6834 27.0274L62.565 32.7165C61.0857 31.5712 58.9514 31.7758 57.7178 33.2106L52.6032 39.1834L48.0681 35.2959C48.098 35.617 48.166 35.9289 48.166 36.2583V44.6974L50.6891 46.8593C52.1864 48.1417 54.4263 47.9435 55.6782 46.4752L61.767 39.3552L66.6777 36.4823L79.6011 28.9212C80.0479 28.6636 80.2459 28.1131 80.0535 27.6226Z" fill="#5C5C5C"/>
<path d="M38.2106 29.137H35.1732C32.8476 29.137 30.8026 30.2673 29.5027 31.9902L20.1792 40.5742C18.7264 41.8683 18.5946 44.1099 19.9029 45.5713L27.5096 54.0619C28.8065 55.5139 31.0514 55.6423 32.504 54.3373C33.9604 53.032 34.0834 50.7964 32.7784 49.3417L27.5352 43.4867L34.9825 36.8225L30.6451 42.7155L34.888 47.4526C37.2325 50.0725 37.0115 54.098 34.3927 56.4443C32.6048 58.0472 30.1649 58.4232 28.0496 57.684C28.0496 57.684 28.0825 74.0515 28.0825 91.58C28.0825 93.9245 29.9828 95.825 32.3275 95.825C34.6697 95.825 36.5725 93.9245 36.5725 91.58C36.5725 74.0569 36.5725 84.0566 36.5725 66.2804H39.404C39.404 84.0437 39.404 74.0515 39.404 91.58C39.404 92.804 39.0627 93.9375 38.5186 94.9407C39.2309 95.4886 40.1172 95.825 41.0833 95.825C43.4292 95.825 45.3295 93.9245 45.3295 91.58C45.3295 74.0569 45.3349 81.4028 45.3349 36.2591C45.3353 32.3256 42.1465 29.137 38.2106 29.137Z" fill="#5C5C5C"/>
<path d="M32.9103 26.5887C34.0453 27.1787 35.3196 27.5448 36.6885 27.5448C38.0609 27.5448 39.3352 27.1787 40.4735 26.5877C43.1305 25.2111 44.962 22.4706 44.962 19.2721C44.962 14.7029 41.2578 11 36.6883 11C32.1195 11 28.4163 14.7029 28.4163 19.2721C28.4164 22.4724 30.2498 25.2139 32.9103 26.5887Z" fill="#5C5C5C"/>
<defs>
<linearGradient id="paint0_linear" x1="83.895" y1="2.05562" x2="-11.5335" y2="30.1824" gradientUnits="userSpaceOnUse">
<stop stop-color="#FFC000"/>
<stop offset="1" stop-color="#FF8A00"/>
</linearGradient>
</defs>
</svg>
